<?xml version="1.0" encoding="UTF-8"?>
<svg width="31px" height="30px" viewBox="0 0 31 30" version="1.1" xmlns="http://www.w3.org/2000/svg" xmlns:xlink="http://www.w3.org/1999/xlink">
    <defs></defs>
    <g id="Design" stroke="none" stroke-width="1" fill="none" fill-rule="evenodd">
        <g id="1.0.0-–-Homepage" transform="translate(-715.000000, -3797.000000)">
            <g id="How-it-works" transform="translate(0.000000, 3002.000000)">
                <g id="Group-2" transform="translate(570.000000, 788.000000)">
                    <g id="camp" transform="translate(96.000000, 0.000000)">
                        <g id="Icons-/-Secondary-Nav-/-Campaigns-/-01-Deafult" transform="translate(42.000000, 0.000000)">
                            <path d="M24,34.5 C16.5441559,34.5 10.5,28.4558441 10.5,21 C10.5,13.5441559 16.5441559,7.5 24,7.5 C31.4558441,7.5 37.5,13.5441559 37.5,21 C37.5,28.4558441 31.4558441,34.5 24,34.5 Z M24,30 C28.9705627,30 33,25.9705627 33,21 C33,16.0294373 28.9705627,12 24,12 C19.0294373,12 15,16.0294373 15,21 C15,25.9705627 19.0294373,30 24,30 Z M24,25.5 C21.5147186,25.5 19.5,23.4852814 19.5,21 C19.5,18.5147186 21.5147186,16.5 24,16.5 C26.4852814,16.5 28.5,18.5147186 28.5,21 C28.5,23.4852814 26.4852814,25.5 24,25.5 Z" id="Combined-Shape" fill="#425070"></path>
                            <path d="M14.1479708,32.1479708 L16.5,34.5 L24,21 L9,27 L12.0266504,30.0266504 L7.5,34.5533009 L9.62132034,36.6746212 L14.1479708,32.1479708 Z" id="Combined-Shape" fill="#AAB7C4"></path>
                        </g>
                    </g>
                </g>
            </g>
        </g>
    </g>
</svg>