<?xml version="1.0" encoding="UTF-8"?>
<svg width="64px" height="60px" viewBox="0 0 64 60" version="1.1" xmlns="http://www.w3.org/2000/svg" xmlns:xlink="http://www.w3.org/1999/xlink">
    <defs></defs>
    <g id="Design" stroke="none" stroke-width="1" fill="none" fill-rule="evenodd">
        <g id="1.0.0-–-Homepage" transform="translate(-739.000000, -2130.000000)" fill-rule="nonzero">
            <g id="What-you-can-do" transform="translate(-632.000000, 1360.000000)">
                <g id="#1-copy-3" transform="translate(1371.000000, 770.000000)">
                    <g id="analytics">
                        <polygon id="Shape" fill="#AAB7C4" points="8.69915366 28.2258061 6.06614936 26.2036588 23.3175935 3.83365426 40.126693 20.0950888 56.0721671 7.35134801 58.1364424 9.94222425 39.9160527 24.5185361 23.6756821 8.80476639"></polygon>
                        <path d="M61.7383923,59.9061139 L51.3538234,59.9061139 C51.1010549,59.9061139 50.9114786,59.7165376 50.9114786,59.4637692 L50.9114786,21.8223397 C50.9114786,21.5695712 51.1010549,21.3799949 51.3538234,21.3799949 L61.7383923,21.3799949 C61.9911607,21.3799949 62.1807371,21.5695712 62.1807371,21.8223397 L62.1807371,59.4637692 C62.1807371,59.6954735 61.9911607,59.9061139 61.7383923,59.9061139 Z" id="Shape" fill="#5589FF"></path>
                        <path d="M45.2241893,59.9061139 L34.8396204,59.9061139 C34.586852,59.9061139 34.3972757,59.7165376 34.3972757,59.4637692 L34.3972757,32.8809577 C34.3972757,32.6281893 34.586852,32.438613 34.8396204,32.438613 L45.2241893,32.438613 C45.4769578,32.438613 45.6665341,32.6281893 45.6665341,32.8809577 L45.6665341,59.4637692 C45.64547,59.6954735 45.4558937,59.9061139 45.2241893,59.9061139 Z" id="Shape" fill="#5589FF"></path>
                        <path d="M28.6889223,59.9061139 L18.3043534,59.9061139 C18.0515849,59.9061139 17.8620086,59.7165376 17.8620086,59.4637692 L17.8620086,19.4210397 C17.8620086,19.1682713 18.0515849,18.978695 18.3043534,18.978695 L28.6889223,18.978695 C28.9416907,18.978695 29.131267,19.1682713 29.131267,19.4210397 L29.131267,59.4637692 C29.131267,59.6954735 28.9416907,59.9061139 28.6889223,59.9061139 Z" id="Shape" fill="#5589FF"></path>
                        <path d="M12.1747193,59.9061139 L1.79015037,59.9061139 C1.53738196,59.9061139 1.34780565,59.7165376 1.34780565,59.4637692 L1.34780565,39.7267689 C1.34780565,39.4740005 1.53738196,39.2844242 1.79015037,39.2844242 L12.1747193,39.2844242 C12.4274878,39.2844242 12.6170641,39.4740005 12.6170641,39.7267689 L12.6170641,59.4637692 C12.6170641,59.6954735 12.4064237,59.9061139 12.1747193,59.9061139 Z" id="Shape" fill="#5589FF"></path>
                        <circle id="Oval" fill="#425070" cx="57.1043048" cy="8.65731815" r="6.19282612"></circle>
                        <circle id="Oval" fill="#5589FF" cx="57.1043048" cy="8.65731815" r="3.60194989"></circle>
                        <circle id="Oval" fill="#425070" cx="40.0213728" cy="21.6959555" r="6.19282612"></circle>
                        <circle id="Oval" fill="#5589FF" cx="40.0213728" cy="21.6959555" r="3.60194989"></circle>
                        <circle id="Oval" fill="#425070" cx="23.5071699" cy="6.31921033" r="6.19282612"></circle>
                        <circle id="Oval" fill="#5589FF" cx="23.5071699" cy="6.31921033" r="3.60194989"></circle>
                        <circle id="Oval" fill="#425070" cx="6.97190284" cy="27.2147325" r="6.19282612"></circle>
                        <circle id="Oval" fill="#5589FF" cx="6.97190284" cy="27.2147325" r="3.60194989"></circle>
                    </g>
                </g>
            </g>
        </g>
    </g>
</svg>