<?xml version="1.0" encoding="UTF-8"?>
<svg width="55px" height="60px" viewBox="0 0 55 60" version="1.1" xmlns="http://www.w3.org/2000/svg" xmlns:xlink="http://www.w3.org/1999/xlink">
    <defs></defs>
    <g id="Design" stroke="none" stroke-width="1" fill="none" fill-rule="evenodd">
        <g id="1.0.0-–-Homepage" transform="translate(-739.000000, -1770.000000)" fill-rule="nonzero">
            <g id="What-you-can-do" transform="translate(-632.000000, 1360.000000)">
                <g id="#1-copy" transform="translate(1371.000000, 410.000000)">
                    <g id="collaboration">
                        <polygon id="Shape" fill="#E4EAF6" points="29.0395322 36.5157895 29.0395322 26.7 26.9674854 26.7 26.9674854 36.5157895 16.8678363 43.4590643 18.0415205 45.1670175 28.0035088 38.3177778 37.9654971 45.1670175 39.1391813 43.4590643"></polygon>
                        <polygon id="Shape" fill="#E6AF78" points="32.3071345 19.6069006 32.3071345 16.2596491 23.6997661 16.2596491 23.6997661 19.6069006 28.0035088 23.4323977"></polygon>
                        <path d="M38.9615205,21.1726316 L33.0444444,19.7804678 C32.9550877,19.7595322 32.8728655,19.7237427 32.7959064,19.6804678 L28.0032749,22.4761404 L23.3975439,19.5452632 C23.2782456,19.6575439 23.1304094,19.7409357 22.9622222,19.7804678 L17.0451462,21.1726316 C16.1810526,21.3759064 15.5704094,22.1469006 15.5704094,23.0346199 L15.5704094,26.7797661 C15.5704094,27.3079532 15.9985965,27.7361404 16.5267836,27.7361404 L39.4796491,27.7361404 C40.0078363,27.7361404 40.4360234,27.3079532 40.4360234,26.7797661 L40.4360234,23.0346199 C40.4362573,22.1470175 39.825614,21.3760234 38.9615205,21.1726316 Z" id="Shape" fill="#425070"></path>
                        <path d="M23.6997661,16.2596491 L23.6997661,19.791345 C29.1212865,21.7445614 32.3071345,16.8560234 32.3071345,16.8560234 L32.3071345,16.2596491 C32.3071345,16.2596491 23.6997661,16.2596491 23.6997661,16.2596491 Z" id="Shape" fill="#D29B6E"></path>
                        <path d="M21.7871345,5.26140351 L22.2038596,14.4288889 C22.242807,15.2853801 22.6626901,16.0794152 23.348538,16.5939181 L25.325731,18.0768421 C25.8223392,18.4493567 26.4264327,18.6506433 27.0471345,18.6506433 L28.959883,18.6506433 C29.5805848,18.6506433 30.1847953,18.4492398 30.6812865,18.0768421 L32.6584795,16.5939181 C33.3443275,16.0795322 33.7642105,15.2853801 33.8031579,14.4288889 L34.219883,5.26140351 L21.7871345,5.26140351 Z" id="Shape" fill="#F0C087"></path>
                        <path d="M26.5688889,7.17415205 C28.4816374,7.17415205 31.3507602,6.69602339 32.031345,5.26140351 L21.7871345,5.26140351 L22.2037427,14.4288889 C22.2426901,15.2853801 22.6625731,16.0794152 23.3484211,16.5939181 L25.325614,18.0768421 C25.8222222,18.4493567 26.4263158,18.6506433 27.0470175,18.6506433 L28.0033918,18.6506433 C27.0470175,18.6506433 25.134269,16.7378947 25.134269,14.3469006 C25.134269,13.1775439 25.134269,10.0431579 25.134269,8.60865497 C25.134386,8.13052632 25.6125146,7.17415205 26.5688889,7.17415205 Z" id="Shape" fill="#E6AF78"></path>
                        <g id="Group" transform="translate(15.555556, 21.754386)">
                            <path d="M21.3701754,2.87824561 L24.4687719,0.0947368421 C24.7284211,0.423508772 24.8807018,0.837192982 24.8807018,1.28011696 L24.8807018,5.02526316 C24.8807018,5.55345029 24.4525146,5.98163743 23.9243275,5.98163743 L20.577076,5.98163743 L20.577076,4.65684211 C20.577076,3.97824561 20.8654971,3.33181287 21.3701754,2.87824561 Z" id="Shape" fill="#323D5D"></path>
                            <path d="M3.52561404,2.87824561 L0.427017544,0.0947368421 C0.167368421,0.423508772 0.0150877193,0.837192982 0.0150877193,1.28011696 L0.0150877193,5.02526316 C0.0150877193,5.55345029 0.443274854,5.98163743 0.971461988,5.98163743 L4.31871345,5.98163743 L4.31871345,4.65684211 C4.31883041,3.97824561 4.03040936,3.33181287 3.52561404,2.87824561 Z" id="Shape" fill="#323D5D"></path>
                            <polygon id="Shape" fill="#AAB7C4" points="13.6433918 5.98163743 11.2523977 5.98163743 11.551345 1.6780117 13.3445614 1.6780117"></polygon>
                        </g>
                        <path d="M29.1989474,22.4760234 L26.8079532,22.4760234 L26.8079532,22.7522807 C26.8079532,23.3920468 27.3265497,23.9106433 27.9663158,23.9106433 L28.0404678,23.9106433 C28.6802339,23.9106433 29.1988304,23.3920468 29.1988304,22.7522807 L29.1988304,22.4760234 L29.1989474,22.4760234 Z" id="Shape" fill="#8998AA"></path>
                        <g id="Group" transform="translate(22.222222, 18.362573)" fill="#323D5D">
                            <path d="M1.41052632,0.179649123 L5.78128655,4.11333333 C5.78128655,4.11333333 4.55719298,4.73122807 3.04654971,5.97672515 C2.73497076,6.23368421 2.26350877,6.12959064 2.09649123,5.76187135 L0.0430409357,1.24421053 L0.692631579,0.269824561 C0.854385965,0.0273684211 1.19368421,-0.0153216374 1.41052632,0.179649123 Z" id="Shape"></path>
                            <path d="M10.1520468,0.179649123 L5.78128655,4.11333333 C5.78128655,4.11333333 7.00538012,4.73122807 8.51602339,5.97672515 C8.82760234,6.23368421 9.29906433,6.12959064 9.46608187,5.76187135 L11.5195322,1.24421053 L10.8699415,0.269824561 C10.7081871,0.0273684211 10.3688889,-0.0153216374 10.1520468,0.179649123 Z" id="Shape"></path>
                        </g>
                        <path d="M30.9024561,2.09345029 L31.3507602,5.26152047 C33.397076,5.67076023 33.6920468,8.88222222 33.7345029,9.79953216 C33.7422222,9.96596491 33.7953216,10.1267836 33.885614,10.2667836 L34.6664327,11.4778947 C34.6664327,11.4778947 34.3991813,9.4754386 35.622807,8.13064327 C35.622807,8.13052632 36.042924,0.180701754 30.9024561,2.09345029 Z" id="Shape" fill="#586686"></path>
                        <path d="M35.1463158,11.2732164 L34.6063158,13.4333333 C34.5423392,13.6892398 34.3122807,13.8687719 34.048538,13.8687719 L34.048538,13.8687719 C33.7585965,13.8687719 33.5140351,13.6528655 33.4780117,13.3652632 L33.2018713,11.1560234 C33.1280702,10.5652632 33.588655,10.0433918 34.1840936,10.0433918 L34.1860819,10.0433918 C34.8298246,10.0432749 35.3023392,10.6484211 35.1463158,11.2732164 Z" id="Shape" fill="#F0C087"></path>
                        <path d="M22.2452632,1.23672515 L22.9526316,1.71988304 C19.7548538,4.08093567 20.3525146,8.13052632 20.3525146,8.13052632 C21.3088889,9.08690058 21.3088889,11.4777778 21.3088889,11.4777778 L22.2652632,10.5214035 C22.2652632,10.5214035 21.8961404,7.75871345 23.699883,6.69602339 C25.3735673,5.70982456 26.8380117,6.21789474 28.3322807,6.21789474 C32.337076,6.21789474 33.4577778,4.70865497 33.2635088,2.87064327 C33.1630409,1.91953216 31.7088889,-0.0614035088 28.0035088,0.00152046784 C26.5080702,0.0269005848 23.6997661,0.479649123 22.2452632,1.23672515 Z" id="Shape" fill="#425070"></path>
                        <path d="M21.9664327,5.7994152 C21.9664327,5.7994152 21.4583626,3.79695906 22.9526316,1.71988304 C19.7548538,4.08093567 20.3525146,8.13052632 20.3525146,8.13052632 C21.3088889,9.08690058 21.3088889,11.4777778 21.3088889,11.4777778 L22.2652632,10.5214035 C22.2652632,10.5214035 21.8961404,7.75871345 23.699883,6.69602339 C25.3735673,5.70982456 26.8380117,6.21789474 28.3322807,6.21789474 C28.9836257,6.21789474 29.5512281,6.17426901 30.0567251,6.09953216 C26.9723977,6.20280702 25.154269,3.86666667 21.9664327,5.7994152 Z" id="Shape" fill="#323D5D"></path>
                        <path d="M20.8607018,11.2732164 L21.4007018,13.4333333 C21.4646784,13.6892398 21.6947368,13.8687719 21.9584795,13.8687719 L21.9584795,13.8687719 C22.2484211,13.8687719 22.4929825,13.6528655 22.5290058,13.3652632 L22.8051462,11.1560234 C22.8789474,10.5652632 22.4183626,10.0433918 21.822924,10.0433918 L21.8209357,10.0433918 C21.177076,10.0432749 20.7045614,10.6484211 20.8607018,11.2732164 Z" id="Shape" fill="#E6AF78"></path>
                        <path d="M33.7417544,26.7797661 L31.3507602,26.7797661 C30.8225731,26.7797661 30.394386,27.2079532 30.394386,27.7361404 L30.394386,27.7361404 L34.6981287,27.7361404 L34.6981287,27.7361404 C34.6980117,27.2079532 34.2698246,26.7797661 33.7417544,26.7797661 Z" id="Shape" fill="#323D5D"></path>
                        <polygon id="Shape" fill="#E6AF78" points="16.7661988 51.7250292 16.7661988 48.3776608 8.15883041 48.3776608 8.15883041 51.7250292 12.4624561 55.5504094"></polygon>
                        <path d="M23.4205848,53.2907602 L17.5035088,51.8985965 C17.414152,51.8776608 17.3319298,51.8418713 17.2550877,51.7985965 L12.4624561,54.594269 L7.85672515,51.6633918 C7.7374269,51.7756725 7.58959064,51.8590643 7.42140351,51.8985965 L1.50432749,53.2907602 C0.640233918,53.4940351 0.0295906433,54.2650292 0.0295906433,55.1527485 L0.0295906433,58.8978947 C0.0295906433,59.4260819 0.457777778,59.854269 0.985964912,59.854269 L23.9388304,59.854269 C24.4670175,59.854269 24.8952047,59.4260819 24.8952047,58.8978947 L24.8952047,55.1527485 C24.8953216,54.2650292 24.2846784,53.4940351 23.4205848,53.2907602 Z" id="Shape" fill="#425070"></path>
                        <path d="M8.15883041,48.3776608 L8.15883041,51.9093567 C13.5803509,53.8625731 16.7661988,48.9740351 16.7661988,48.9740351 L16.7661988,48.3776608 L8.15883041,48.3776608 L8.15883041,48.3776608 Z" id="Shape" fill="#D29B6E"></path>
                        <path d="M6.24608187,37.3795322 L6.66280702,46.5470175 C6.70175439,47.4035088 7.12163743,48.1975439 7.80748538,48.7120468 L9.78467836,50.1949708 C10.2812865,50.5674854 10.8853801,50.7687719 11.5060819,50.7687719 L13.4188304,50.7687719 C14.0395322,50.7687719 14.6437427,50.5673684 15.1402339,50.1949708 L17.1174269,48.7120468 C17.8032749,48.1976608 18.2231579,47.4035088 18.2621053,46.5470175 L18.6788304,37.3795322 L6.24608187,37.3795322 Z" id="Shape" fill="#F0C087"></path>
                        <path d="M11.0279532,39.2921637 C12.9407018,39.2921637 15.8098246,38.8140351 16.4902924,37.3794152 L6.24608187,37.3794152 L6.66269006,46.5469006 C6.70163743,47.4033918 7.12152047,48.1974269 7.80736842,48.7119298 L9.7845614,50.1948538 C10.2811696,50.5673684 10.8852632,50.768655 11.5059649,50.768655 L12.4623392,50.768655 C11.5059649,50.768655 9.59321637,48.8559064 9.59321637,46.4649123 C9.59321637,45.2955556 9.59321637,42.1611696 9.59321637,40.7266667 C9.59333333,40.2484211 10.0715789,39.2921637 11.0279532,39.2921637 Z" id="Shape" fill="#E6AF78"></path>
                        <g id="Group" transform="translate(0.000000, 53.918129)" fill="#323D5D">
                            <path d="M21.3846784,2.83251462 L24.4832749,0.049005848 C24.742924,0.377777778 24.8952047,0.791461988 24.8952047,1.23438596 L24.8952047,4.97953216 C24.8952047,5.5077193 24.4670175,5.93590643 23.9388304,5.93590643 L20.5915789,5.93590643 L20.5915789,4.61111111 C20.5915789,3.93263158 20.88,3.28608187 21.3846784,2.83251462 Z" id="Shape"></path>
                            <path d="M3.54023392,2.83251462 L0.441637427,0.049005848 C0.181988304,0.377777778 0.0297076023,0.791461988 0.0297076023,1.23438596 L0.0297076023,4.97953216 C0.0297076023,5.5077193 0.457894737,5.93590643 0.986081871,5.93590643 L4.33333333,5.93590643 L4.33333333,4.61111111 C4.33345029,3.93263158 4.04502924,3.28608187 3.54023392,2.83251462 Z" id="Shape"></path>
                        </g>
                        <polygon id="Shape" fill="#AAB7C4" points="13.6580117 59.8540351 11.2670175 59.8540351 11.5659649 55.5504094 13.3590643 55.5504094"></polygon>
                        <path d="M13.6580117,54.594152 L11.2670175,54.594152 L11.2670175,54.8704094 C11.2670175,55.5101754 11.785614,56.0287719 12.4253801,56.0287719 L12.4995322,56.0287719 C13.1392982,56.0287719 13.6578947,55.5101754 13.6578947,54.8704094 L13.6578947,54.594152 L13.6580117,54.594152 Z" id="Shape" fill="#8998AA"></path>
                        <g id="Group" transform="translate(6.666667, 50.526316)" fill="#323D5D">
                            <path d="M1.42502924,0.133918129 L5.79578947,4.06760234 C5.79578947,4.06760234 4.57169591,4.68549708 3.06105263,5.93099415 C2.74947368,6.18795322 2.2780117,6.08385965 2.11099415,5.71614035 L0.0575438596,1.19847953 L0.707134503,0.224093567 C0.869005848,-0.0184795322 1.20830409,-0.0610526316 1.42502924,0.133918129 Z" id="Shape"></path>
                            <path d="M10.1666667,0.133918129 L5.79590643,4.06760234 C5.79590643,4.06760234 7.02,4.68549708 8.53064327,5.93099415 C8.84222222,6.18795322 9.31368421,6.08385965 9.48070175,5.71614035 L11.534152,1.19847953 L10.8845614,0.224093567 C10.7226901,-0.0184795322 10.3833918,-0.0610526316 10.1666667,0.133918129 Z" id="Shape"></path>
                        </g>
                        <path d="M15.3615205,34.211462 L15.8098246,37.3795322 C17.8561404,37.7887719 18.1511111,41.0002339 18.1935673,41.9175439 C18.2012865,42.0839766 18.254386,42.2447953 18.3446784,42.3847953 L19.1254971,43.5959064 C19.1254971,43.5959064 18.8582456,41.5934503 20.0818713,40.248655 C20.0818713,40.2484211 20.5019883,32.2987135 15.3615205,34.211462 Z" id="Shape" fill="#586686"></path>
                        <path d="M19.6052632,43.3912281 L19.0652632,45.551345 C19.0012865,45.8072515 18.7712281,45.9867836 18.5074854,45.9867836 L18.5074854,45.9867836 C18.2175439,45.9867836 17.9729825,45.7708772 17.9369591,45.4832749 L17.6608187,43.2739181 C17.5870175,42.6831579 18.0476023,42.1612865 18.6430409,42.1612865 L18.6450292,42.1612865 C19.2888889,42.1612865 19.7615205,42.7665497 19.6052632,43.3912281 Z" id="Shape" fill="#F0C087"></path>
                        <path d="M6.70432749,33.3547368 L7.41169591,33.8378947 C4.21391813,36.1989474 4.81157895,40.248538 4.81157895,40.248538 C5.76795322,41.2049123 5.76795322,43.5957895 5.76795322,43.5957895 L6.72432749,42.6394152 C6.72432749,42.6394152 6.35520468,39.8767251 8.15894737,38.8140351 C9.83263158,37.8278363 11.297076,38.3359064 12.791345,38.3359064 C16.7961404,38.3359064 17.9168421,36.8266667 17.7225731,34.988655 C17.6221053,34.0375439 16.1679532,32.0566082 12.4625731,32.1195322 C10.9671345,32.1449123 8.15883041,32.5976608 6.70432749,33.3547368 Z" id="Shape" fill="#425070"></path>
                        <path d="M6.42549708,37.9173099 C6.42549708,37.9173099 5.9174269,35.9148538 7.41169591,33.8377778 C4.21391813,36.1988304 4.81157895,40.2484211 4.81157895,40.2484211 C5.76795322,41.2047953 5.76795322,43.5956725 5.76795322,43.5956725 L6.72432749,42.6392982 C6.72432749,42.6392982 6.35520468,39.8766082 8.15894737,38.8139181 C9.83263158,37.8277193 11.297076,38.3357895 12.791345,38.3357895 C13.4426901,38.3357895 14.0102924,38.2921637 14.5157895,38.2174269 C11.431345,38.3208187 9.61333333,35.9846784 6.42549708,37.9173099 Z" id="Shape" fill="#323D5D"></path>
                        <path d="M5.31976608,43.3912281 L5.85976608,45.551345 C5.92374269,45.8072515 6.15380117,45.9867836 6.41754386,45.9867836 L6.41754386,45.9867836 C6.70748538,45.9867836 6.95204678,45.7708772 6.98807018,45.4832749 L7.26421053,43.2740351 C7.3380117,42.6832749 6.8774269,42.1614035 6.2819883,42.1614035 L6.28,42.1614035 C5.63614035,42.1612865 5.16350877,42.7665497 5.31976608,43.3912281 Z" id="Shape" fill="#E6AF78"></path>
                        <path d="M18.2008187,58.8976608 L15.8098246,58.8976608 C15.2816374,58.8976608 14.8534503,59.325848 14.8534503,59.8540351 L14.8534503,59.8540351 L19.157193,59.8540351 L19.157193,59.8540351 C19.157076,59.3259649 18.7288889,58.8976608 18.2008187,58.8976608 Z" id="Shape" fill="#323D5D"></path>
                        <path d="M44.5805848,32.4576608 C34.9340351,32.4576608 36.0036257,44.188538 36.0477193,52.6895906 C36.0493567,53.0106433 36.2175439,53.300117 36.4926316,53.465848 C37.5616374,54.1102924 40.4973099,55.6168421 44.5807018,55.6168421 C48.6640936,55.6168421 51.5997661,54.1102924 52.6687719,53.465848 C52.9437427,53.300117 53.1119298,53.0106433 53.1136842,52.6895906 C53.1575439,44.188655 54.2271345,32.4576608 44.5805848,32.4576608 Z" id="Shape" fill="#694B4B"></path>
                        <path d="M43.9590643,32.4818713 C34.9873684,32.9849123 36.0046784,44.3777778 36.0477193,52.6895906 C36.0493567,53.0106433 36.2175439,53.300117 36.4926316,53.465848 C37.5616374,54.1102924 40.4973099,55.6168421 44.5807018,55.6168421 L47.0185965,38.5521637" id="Shape" fill="#323D5D"></path>
                        <path d="M44.5805848,32.4576608 C39.0955556,32.4576608 38.7146199,39.0853801 38.7146199,39.0853801 C41.8761404,38.5520468 43.8188304,39.8852632 47.0184795,38.5520468 L44.5805848,55.6167251 C48.6640936,55.6167251 51.5996491,54.1101754 52.668655,53.465731 C52.9436257,53.3 53.1118129,53.0105263 53.1135673,52.6894737 C53.1575439,44.188655 54.2271345,32.4576608 44.5805848,32.4576608 Z" id="Shape" fill="#425070"></path>
                        <path d="M53.1134503,52.6895906 C53.1512281,45.3847953 53.939883,35.7021053 48.0422222,33.119883 C47.9394152,33.654269 47.7529825,35.1460819 48.2373099,36.114386 C49.4562573,38.5522807 50.6752047,38.5522807 51.8939181,40.3804678 C53.1128655,47.0844444 49.5649123,54.199883 48.3865497,55.168655 L48.3865497,55.168655 C50.474386,54.6721637 51.9709942,53.8864327 52.668655,53.465848 C52.9435088,53.3 53.1118129,53.0106433 53.1134503,52.6895906 Z" id="Shape" fill="#586686"></path>
                        <path d="M53.8160234,54.5385965 L48.3778947,52.2727485 C47.9237427,52.0835088 47.6278363,51.6397661 47.6278363,51.1476023 L47.6278363,49.6748538 L41.5333333,49.6748538 L41.5333333,51.1476023 C41.5333333,51.6397661 41.2374269,52.0835088 40.7832749,52.2727485 L35.3451462,54.5385965 C34.6638596,54.8224561 34.22,55.4881871 34.22,56.2263158 L34.22,58.6642105 C34.22,59.3374269 34.765731,59.8831579 35.4389474,59.8831579 L53.7223392,59.8831579 C54.3955556,59.8831579 54.9412865,59.3374269 54.9412865,58.6642105 L54.9412865,56.2263158 C54.9411696,55.4880702 54.4974269,54.8224561 53.8160234,54.5385965 Z" id="Shape" fill="#E6AF78"></path>
                        <path d="M53.8160234,54.5385965 L48.5580117,52.3477193 L44.5805848,54.0643275 L40.6031579,52.3477193 L35.3450292,54.5385965 C34.6637427,54.8224561 34.219883,55.4881871 34.219883,56.2263158 L34.219883,58.6642105 C34.219883,59.3374269 34.765614,59.8831579 35.4388304,59.8831579 L53.7222222,59.8831579 C54.3954386,59.8831579 54.9411696,59.3374269 54.9411696,58.6642105 L54.9411696,56.2263158 C54.9411696,55.4880702 54.4974269,54.8224561 53.8160234,54.5385965 Z" id="Shape" fill="#425070"></path>
                        <path d="M47.6277193,49.6746199 L41.5332164,49.6746199 L41.5332164,51.1473684 C41.5332164,51.6395322 41.2373099,52.0832749 40.7831579,52.2725146 L39.9336842,52.6264327 C46.4335673,54.2837427 47.6277193,49.6746199 47.6277193,49.6746199 Z" id="Shape" fill="#D29B6E"></path>
                        <g id="Group" transform="translate(34.152047, 51.345029)" fill="#323D5D">
                            <path d="M3.03836257,5.55111111 L0.592046784,3.60526316 C0.264210526,3.94046784 0.0678362573,4.39368421 0.0678362573,4.88116959 L0.0678362573,7.31906433 C0.0678362573,7.9922807 0.613567251,8.5380117 1.28678363,8.5380117 L3.72467836,8.5380117 L3.72467836,6.97894737 C3.7245614,6.42339181 3.47204678,5.89812865 3.03836257,5.55111111 Z" id="Shape"></path>
                            <path d="M20.7891228,7.31894737 L20.7891228,4.88105263 C20.7891228,4.39730994 20.5959064,3.9471345 20.2727485,3.61274854 L17.8185965,5.55099415 C17.3849123,5.89789474 17.1325146,6.42327485 17.1325146,6.97871345 L17.1325146,8.53777778 L19.5704094,8.53777778 C20.2433918,8.53789474 20.7891228,7.99216374 20.7891228,7.31894737 Z" id="Shape"></path>
                            <path d="M10.519883,7.31894737 L10.337076,7.31894737 C10.0509942,7.31894737 9.81906433,7.08701754 9.81906433,6.80093567 L9.81906433,2.72070175 L11.0380117,2.72070175 L11.0380117,6.80093567 C11.0380117,7.08701754 10.8059649,7.31894737 10.519883,7.31894737 Z" id="Shape"></path>
                            <path d="M10.428538,2.71929825 L6.94035088,0.103274854 C6.71637427,-0.0646783626 6.3974269,-0.0100584795 6.24222222,0.222807018 L5.55298246,1.25672515 L7.69157895,4.25064327 C7.85415205,4.47812865 8.17450292,4.52269006 8.3928655,4.34807018 L10.428538,2.71929825 Z" id="Shape"></path>
                            <path d="M10.428538,2.71929825 L13.9167251,0.103274854 C14.1407018,-0.0646783626 14.4596491,-0.0100584795 14.6148538,0.222807018 L15.3040936,1.25672515 L13.1654971,4.25064327 C13.002924,4.47812865 12.6825731,4.52269006 12.4642105,4.34807018 L10.428538,2.71929825 Z" id="Shape"></path>
                        </g>
                        <path d="M47.6277193,37.9426901 C44.5804678,40.9899415 38.6002339,38.5521637 38.6002339,43.4277193 L38.9787135,47.0190643 C39.0518129,47.8224561 39.5174269,48.5376608 40.2224561,48.9294737 L43.6925146,50.857193 C44.2446784,51.1639766 44.9161404,51.1639766 45.4683041,50.857193 L48.9383626,48.9294737 C49.6435088,48.5376608 50.1092398,47.8224561 50.1821053,47.0190643 L50.6189474,42.7536842 C50.6500585,42.4505263 50.6566082,42.1454971 50.6464327,41.8412865 C50.4185965,40.2899415 48.237193,39.1616374 47.6277193,37.9426901 Z" id="Shape" fill="#F0C087"></path>
                        <path d="M38.6002339,43.4277193 L38.9787135,47.0190643 C39.0518129,47.8224561 39.5174269,48.5376608 40.2224561,48.9294737 L43.6925146,50.857193 C44.0756725,51.0700585 44.5152047,51.1251462 44.9334503,51.0426901 L44.9334503,51.0426901 C44.9334503,51.0426901 43.1839766,50.5125146 42.1426901,47.6939181 C41.8237427,46.8305263 41.3809357,42.2596491 41.7617544,41.7009357 C42.5146199,40.5967251 46.7134503,40.4819883 47.954152,38.4335673 C47.8928655,38.3575439 47.8362573,38.2814035 47.7846784,38.2051462 C47.7805848,38.1990643 47.7754386,38.1928655 47.771345,38.1866667 C47.7174269,38.105614 47.668655,38.0244444 47.6277193,37.942807 C44.5805848,40.9899415 38.6002339,38.5521637 38.6002339,43.4277193 Z" id="Shape" fill="#E6AF78"></path>
                        <path d="M49.0295906,58.6639766 L47.4450292,58.6639766 C46.8728655,58.6639766 46.4090058,59.1278363 46.4090058,59.7 L46.4090058,59.882807 L50.065614,59.882807 L50.065614,59.7 C50.065614,59.1279532 49.6017544,58.6639766 49.0295906,58.6639766 Z" id="Shape" fill="#323D5D"></path>
                    </g>
                </g>
            </g>
        </g>
    </g>
</svg>