<?xml version="1.0" encoding="UTF-8"?>
<svg width="75px" height="60px" viewBox="0 0 75 60" version="1.1" xmlns="http://www.w3.org/2000/svg" xmlns:xlink="http://www.w3.org/1999/xlink">
    <defs></defs>
    <g id="Design" stroke="none" stroke-width="1" fill="none" fill-rule="evenodd">
        <g id="1.0.0-–-Homepage" transform="translate(-739.000000, -1950.000000)" fill-rule="nonzero">
            <g id="What-you-can-do" transform="translate(-632.000000, 1360.000000)">
                <g id="#1-copy-2" transform="translate(1371.000000, 590.000000)">
                    <g id="handshake">
                        <path d="M60.510878,45.2221463 C60.510878,46.1985366 60.138439,47.1749268 59.393561,47.9198049 C59.0697073,48.2436585 58.704,48.4969756 58.313122,48.6797561 C56.898878,49.3407805 55.1641463,49.0874634 53.9982439,47.9198049 L43.0952195,37.0185366 L44.0162927,37.9412195 L55.2079024,49.1310732 C55.2196098,49.1427805 55.2314634,49.1544878 55.2414146,49.1663415 C55.9644878,49.9062439 56.3252195,50.8674146 56.3252195,51.8287317 C56.3252195,52.805122 55.9527805,53.783122 55.2079024,54.528 C54.8858049,54.8500976 54.5183415,55.1034146 54.1274634,55.2863415 C52.7132195,55.9473659 50.9784878,55.6956585 49.8108293,54.528 L46.9672683,51.6860488 C47.682,52.4241951 48.0376098,53.3805366 48.0376098,54.3349756 C48.0376098,55.3113659 47.6651707,56.2877561 46.9202927,57.0326341 C46.5981951,57.3547317 46.2307317,57.6080488 45.8416098,57.7909756 C44.4273659,58.452 42.6926341,58.2002927 41.5249756,57.0326341 L37.8677561,53.3754146 C39.3373171,54.8667805 39.3307317,57.2675122 37.847561,58.7505366 C37.8241463,58.7740976 37.7989756,58.799122 37.7738049,58.8210732 C37.0390244,59.5205854 36.0927805,59.8696098 35.1482927,59.8696098 C34.1719024,59.8696098 33.1955122,59.4971707 32.4506341,58.7506829 L17.0247805,43.3248293 L15.7145854,42.0162439 L13.3390244,39.6406829 C9.47209756,35.772 7.05117073,30.6938049 6.4842439,25.254878 L0,18.7706341 L7.73063415,10.9109268 L18.3333659,0.130390244 L25.740439,7.53746341 C27.0392195,8.8362439 29.0222927,9.14868293 30.6648293,8.3262439 C31.9655122,7.67502439 33.3875122,7.34912195 34.8095122,7.34912195 C35.7623415,7.34912195 36.7153171,7.49502439 37.6330244,7.78873171 C36.8328293,8.28190244 36.0762439,8.87590244 35.3833171,9.56868293 L44.6808293,14.0278537 L45.8132195,21.3674634 C45.8132195,21.3674634 46.6662439,15.3976098 44.2153171,19.6017073 L49.6718049,20.3607805 C49.6852683,20.3742439 47.2240976,24.3737561 47.2391707,24.3870732 L58.8938049,42.0241463 L59.3937073,42.5240488 C60.138439,43.2693659 60.510878,44.2457561 60.510878,45.2221463 Z" id="Shape" fill="#F0C087"></path>
                        <g id="Group" transform="translate(14.487805, 42.000000)" fill="#D29B6E">
                            <path d="M17.6508293,16.4385366 L17.4125854,16.6767805 C16.6677073,17.4216585 15.6913171,17.7940976 14.7149268,17.7940976 C13.7385366,17.7940976 12.7621463,17.4216585 12.0172683,16.6767805 C10.5275122,15.1854146 10.5275122,12.7696098 12.0172683,11.2798537 L12.2555122,11.0433659 L16.0044878,12.8367805 L17.6508293,16.4385366 Z" id="Shape"></path>
                            <path d="M6.62370732,5.41141463 L6.62209756,5.41302439 C6.54321951,5.49190244 6.46273171,5.56565854 6.3804878,5.63282927 C4.88239024,6.89941463 2.63765854,6.82390244 1.22502439,5.41302439 C0.480146341,4.66814634 0.107707317,3.6917561 0.107707317,2.71536585 C0.107707317,1.73897561 0.480146341,0.762585366 1.22502439,0.0177073171 L1.22663415,0.016097561 L3.58829268,0.673756098 L5.65726829,2.32331707 L6.62370732,5.41141463 Z" id="Shape"></path>
                            <path d="M6.62370732,5.41141463 L10.9978537,7.2864878 L12.09,10.8778537 L11.6901951,11.2330244 C10.1937073,12.5852195 7.88019512,12.5398537 6.43756098,11.0970732 C5.69268293,10.3505854 5.3202439,9.37419512 5.3202439,8.39780488 C5.3202439,7.74892683 5.48458537,7.10004878 5.81370732,6.51921951 C5.97980488,6.22595122 6.54336585,5.49219512 6.62209756,5.41331707 L6.62370732,5.41141463 Z" id="Shape"></path>
                        </g>
                        <path d="M74.9268293,18.462 L68.1340976,25.2547317 C67.9747317,26.783122 67.6677073,28.2845854 67.224878,29.7374634 L67.224878,29.7390732 C66.089122,33.455122 64.0574634,36.8606341 61.2777073,39.6405366 L58.8938049,42.024439 L47.3566829,30.4873171 L40.4430732,23.5737073 C40.428,23.5602439 40.4162927,23.5485366 40.4028293,23.5350732 L40.3457561,23.478 C40.3441463,23.4763902 40.3423902,23.4746341 40.3423902,23.4746341 C40.308878,23.441122 40.2920488,23.4242927 40.2920488,23.4242927 L37.7890244,20.9195122 L35.8697561,22.8387805 C34.1988293,24.5097073 32.009561,25.3451707 29.8185366,25.3451707 C27.6292683,25.3451707 25.4398537,24.5097073 23.7689268,22.8387805 C23.3126341,22.3807317 23.3126341,21.6392195 23.7689268,21.1829268 L35.3831707,9.56868293 C36.0760976,8.8757561 36.8326829,8.28190244 37.632878,7.78873171 C39.6058537,6.56912195 41.850439,5.96004878 44.0934146,5.96004878 C46.2323415,5.96004878 48.3730244,6.51365854 50.2788293,7.62087805 C51.9564878,8.59726829 54.090439,8.28190244 55.4626829,6.9095122 L60.0241463,2.34965854 L74.9268293,18.462 Z" id="Shape" fill="#D29B6E"></path>
                        <g id="Group" transform="translate(40.243902, 23.414634)" fill="#BD865A">
                            <path d="M11.6354634,4.02439024 L7.49839024,7.23541463 L7.1124878,7.07268293 L0.198878049,0.159073171 C0.183804878,0.145609756 0.172097561,0.133902439 0.158634146,0.120439024 L0.101560976,0.0633658537 C0.287853659,0.236341463 6.6797561,6.05268293 11.6354634,4.02439024 Z" id="Shape"></path>
                            <path d="M26.9808293,6.32443902 C25.8450732,10.0404878 23.8134146,13.446 21.0336585,16.2259024 L18.6497561,18.6098049 L3.77736585,3.73756098 L3.69512195,3.3215122 C3.69512195,3.3215122 20.0247805,16.4070732 26.9790732,6.32443902 L26.9808293,6.32443902 L26.9808293,6.32443902 Z" id="Shape"></path>
                        </g>
                        <g id="Group" transform="translate(0.000000, 10.829268)">
                            <path d="M37.7738049,47.9918049 C37.0390244,48.6913171 36.0927805,49.0403415 35.1482927,49.0403415 C34.1719024,49.0403415 33.1955122,48.6679024 32.4506341,47.9214146 L17.0247805,32.495561 L15.7145854,31.1869756 L13.3390244,28.8114146 C9.47209756,24.9427317 7.05117073,19.8645366 6.4842439,14.4256098 L0,7.94136585 L7.73063415,0.0816585366 L9.83970732,7.1117561 C10.5602927,9.5135122 10.9046341,12.0080488 10.9182439,14.5154634 C10.9276098,16.2466829 11.2072683,18.4694634 12.2881463,20.4361463 C13.6848293,22.9778049 28.1710244,38.9610732 37.7738049,47.9918049 Z" id="Shape" fill="#E6AF78"></path>
                            <path d="M45.8416098,46.9617073 C44.4273659,47.6227317 42.6926341,47.3710244 41.5249756,46.2033659 L37.8677561,42.5461463 L28.2062927,32.8846829 C27.7147317,32.394878 27.7147317,31.5979024 28.2062927,31.1063415 C28.6960976,30.6147805 29.4930732,30.6147805 29.9846341,31.1063415 L45.8416098,46.9617073 Z" id="Shape" fill="#E6AF78"></path>
                            <path d="M55.2414146,38.3369268 L44.0162927,27.1118049 L55.2079024,38.3016585 C55.2196098,38.3135122 55.2313171,38.3252195 55.2414146,38.3369268 Z" id="Shape" fill="#E5B48F"></path>
                            <path d="M53.9982439,37.0903902 L43.0952195,26.189122 L44.0162927,27.1118049 L39.2484878,22.3456098 C38.7569268,21.8540488 38.7569268,21.0572195 39.246878,20.5656585 C39.738439,20.0740976 40.5352683,20.0740976 41.0268293,20.5656585 L45.7963902,25.3334634 L58.3132683,37.8503415 C56.898878,38.5113659 55.1641463,38.2580488 53.9982439,37.0903902 Z" id="Shape" fill="#E6AF78"></path>
                            <path d="M54.1274634,44.4569268 C52.7132195,45.1179512 50.9784878,44.8662439 49.8108293,43.6985854 L46.9672683,40.8566341 L34.7304878,28.6182439 C34.2389268,28.128439 34.2389268,27.3314634 34.7304878,26.8399024 C35.2202927,26.3483415 36.0172683,26.3483415 36.5088293,26.8399024 L54.1274634,44.4569268 Z" id="Shape" fill="#E6AF78"></path>
                        </g>
                        <polygon id="Shape" fill="#BD865A" points="37.788878 20.9198049 40.4730732 18.2354634 39.0886829 22.2204878"></polygon>
                    </g>
                </g>
            </g>
        </g>
    </g>
</svg>