<?xml version="1.0" encoding="UTF-8"?>
<svg width="89px" height="30px" viewBox="0 0 89 30" version="1.1" xmlns="http://www.w3.org/2000/svg" xmlns:xlink="http://www.w3.org/1999/xlink">
    <defs></defs>
    <g id="Symbols" stroke="none" stroke-width="1" fill="none" fill-rule="evenodd">
        <g id="Components-/-Header-/-Logo-/-Default" transform="translate(-3.000000, -4.000000)">
            <g id="hola-logo-color" transform="translate(-3.000000, -3.000000)">
                <g id="Group-2" transform="translate(47.000000, 14.000000)" fill="#323D5D">
                    <g id="Group">
                        <path d="M0,0 L3.2,0 L3.2,19 L0,19 L0,0 Z M6.4,0 L9.6,0 L9.6,19 L6.4,19 L6.4,0 Z M3.2,7.91666667 L6.4,7.91666667 L6.4,11.0833333 L3.2,11.0833333 L3.2,7.91666667 Z" id="Combined-Shape"></path>
                    </g>
                    <g id="Group-Copy" transform="translate(12.800000, 0.000000)">
                        <path d="M4.8,0 L4.8,0 C7.4509668,-4.86974701e-16 9.6,2.1490332 9.6,4.8 L9.6,14.2 C9.6,16.8509668 7.4509668,19 4.8,19 C2.1490332,19 3.24649801e-16,16.8509668 0,14.2 L0,4.8 L0,4.8 C-3.24649801e-16,2.1490332 2.1490332,4.86974701e-16 4.8,0 L4.8,0 Z M4.8,3.16666667 C3.9163444,3.16666667 3.2,3.88301107 3.2,4.76666667 L3.2,4.76666667 L3.2,14.2333333 C3.2,15.1169889 3.9163444,15.8333333 4.8,15.8333333 L4.8,15.8333333 C5.6836556,15.8333333 6.4,15.1169889 6.4,14.2333333 L6.4,14.2333333 L6.4,4.76666667 C6.4,3.88301107 5.6836556,3.16666667 4.8,3.16666667 Z" id="Combined-Shape"></path>
                    </g>
                    <g id="Group-Copy-3" transform="translate(38.400000, 0.000000)">
                        <path d="M4.8,0 L4.8,0 C7.4509668,-4.86974701e-16 9.6,2.1490332 9.6,4.8 L9.6,19 L0,19 L0,4.8 L-1.77635684e-15,4.8 C-2.10100664e-15,2.1490332 2.1490332,4.86974701e-16 4.8,0 L4.8,0 Z M4.8,3.16666667 C3.9163444,3.16666667 3.2,3.88301107 3.2,4.76666667 L3.2,19 L6.4,19 L6.4,4.76666667 C6.4,3.88301107 5.6836556,3.16666667 4.8,3.16666667 Z M3.2,7.91666667 L6.4,7.91666667 L6.4,11.0833333 L3.2,11.0833333 L3.2,7.91666667 Z" id="Combined-Shape"></path>
                    </g>
                    <g id="Group-Copy-2" transform="translate(25.600000, 0.000000)">
                        <path d="M0,0 L9.6,0 L9.6,19 L3.19999981,19 C1.43268872,19 6.60522397e-16,17.5673113 4.4408921e-16,15.8000002 L0,0 Z M3.2,0 L3.2,15.0333334 C3.2,15.4751612 3.55817218,15.8333333 3.99999995,15.8333333 L9.6,15.8333333 L9.6,0 L3.2,0 Z" id="Combined-Shape"></path>
                    </g>
                </g>
                <g id="Group-3-Copy-2">
                    <path d="M22.8106183,11.0943396 L38.5020802,11.0943396 L38.5020802,11.0943396 C39.3857357,11.0943396 40.1020801,11.810684 40.1020801,12.6943395 C40.1020801,12.8870555 40.0672642,13.0781862 39.9993096,13.2585237 L31.6495741,35.4170145 L31.6495741,35.4170145 C31.4147259,36.0402534 30.8183631,36.4528302 30.1523447,36.4528302 L14.4608828,36.4528302 L14.4608828,36.4528302 C13.5772272,36.4528302 12.8608829,35.7364858 12.8608829,34.8528303 C12.8608829,34.6601144 12.8956988,34.4689836 12.9636534,34.2886461 L21.3133889,12.1301554 L21.3133889,12.1301554 C21.548237,11.5069164 22.1445999,11.0943396 22.8106183,11.0943396 Z" id="Rectangle-5" fill="#5589FF"></path>
                    <g id="hand-2" transform="translate(22.534175, 21.339763) scale(-1, 1) rotate(50.000000) translate(-22.534175, -21.339763) translate(9.034175, 4.339763)" fill-rule="nonzero" fill="#87BBFD">
                        <path d="M8.51535364,16.9658723 L7.4913855,2.85313957 C7.4913855,1.73229103 8.2082112,0.815216852 9.33460014,0.815216852 C10.4609891,0.815216852 10.9730332,1.68136237 11.075394,2.85313957 L12.6114062,14.0618041 L13.1233902,2.34361411 C13.4305927,1.1717772 13.8402159,0.305691393 14.9666049,0.305691393 C16.0929938,0.305691393 16.7073987,1.22276557 16.7073987,2.34361411 L16.7073987,13.5522786 L18.8066954,3.66829672 C19.0627174,2.70029387 19.6771223,1.83414836 20.5474892,1.83414836 C21.3666757,1.83414836 22.032321,2.59837684 21.8274794,3.87207108 L20.2914672,14.0618041 L23.3634916,6.92898501 C23.8754756,5.9099938 24.3875197,5.14576531 25.2067062,5.40052804 C25.9747123,5.6043024 26.0771331,6.21568519 25.9235319,6.92898501 C25.9235319,6.92898501 24.4387001,13.5522786 23.926716,16.6091926 C23.414732,19.6661065 23.414732,25.2704686 21.8787198,29.8558395 L21.5785568,30.9266372 C20.723092,31.9412195 20.1926398,32.5703365 19.9872003,32.8139881 C19.679041,33.1794655 19.0146116,33.1875406 18.7161262,33.0617078 C17.2255305,32.5620298 14.1836958,31.493407 9.59062218,29.8558395 C8.56659404,24.7610028 4.47060151,18.1376495 1.91056118,15.590261 C1.39857711,15.0807953 0.476969793,14.0618041 0.476969793,14.0618041 C0.323368573,13.8580297 0.323368573,13.603267 0.5281502,13.3485043 L0.784172233,13.0937415 C1.60335874,12.2785844 3.90737704,12.2785844 4.72662354,13.0937415 L8.51535364,16.9658723 Z" id="Shape"></path>
                    </g>
                </g>
            </g>
        </g>
    </g>
</svg>