<?xml version="1.0" encoding="UTF-8"?>
<svg width="62px" height="62px" viewBox="0 0 62 62" version="1.1" xmlns="http://www.w3.org/2000/svg" xmlns:xlink="http://www.w3.org/1999/xlink">
    <defs>
        <path d="M36.7104852,22.9276316 C36.7105058,25.3687639 27.5135325,27.585849 18.3427893,27.5788868 C9.2242076,27.5719643 0.131558447,25.3548792 0.131578947,22.9276316 C0.131622566,17.7632298 0.131578947,7.79601151 0.131578947,0.296011513 C12.3684211,0.296011513 24.4736431,0.296011513 36.7104852,0.296011513 C36.7104852,7.92763158 36.7104427,17.8964177 36.7104852,22.9276316 Z" id="path-1"></path>
    </defs>
    <g id="Design" stroke="none" stroke-width="1" fill="none" fill-rule="evenodd">
        <g id="1.0.0-–-Homepage" transform="translate(-739.000000, -1589.000000)">
            <g id="What-you-can-do" transform="translate(-632.000000, 1360.000000)">
                <g id="#1" transform="translate(1371.000000, 230.000000)">
                    <g id="magician">
                        <g id="Group" transform="translate(16.133224, 2.837171)" fill-rule="nonzero">
                            <polygon id="Shape" fill="#F8F175" points="3.18256579 2.45884046 2.78782895 0.0904194079 2.52471217 2.59046053 0.0246710526 2.8535773 2.39309211 3.24831414 2.78782895 5.87997533 3.18256579 3.24831414 5.68260691 2.8535773"></polygon>
                            <polygon id="Shape" fill="#E4EAF1" points="25.1562089 8.64313322 24.761472 6.14309211 24.4983553 8.64313322 21.9983141 8.90625 24.3667352 9.30098684 24.761472 11.9325247 25.1562089 9.30098684 27.65625 8.90625"></polygon>
                        </g>
                        <path d="M19.4474095,11.8750411 C16.8158717,11.4803043 14.8421875,9.375 14.4474507,6.87508224 L14.4474507,6.74346217 L14.4474507,6.87508224 C14.0527138,9.50662007 11.9474095,11.4803043 9.44749178,11.8750411 L9.44749178,11.8750411 C12.0790296,12.269778 14.0527138,14.3750822 14.4474507,16.875 L14.4474507,17.0066201 L14.4474507,16.875 C14.8420641,14.3749589 16.9473684,12.4012747 19.4474095,11.8750411 L19.7105263,11.8750411 L19.4474095,11.8750411 Z" id="Shape" fill="#E4EAF1" fill-rule="nonzero"></path>
                        <path d="M40.763199,4.50653783 C38.526398,4.11180099 36.8158306,2.40123355 36.4210938,0.164432566 L36.4210938,0.0329358553 L36.4210938,0.164555921 C36.0263569,2.40135691 34.3157895,4.11192434 32.0789885,4.50666118 L32.0789885,4.50666118 C34.3157895,4.90139803 36.0263569,6.61196546 36.4210938,8.84876645 L36.4210938,8.98026316 L36.4210938,8.84864309 C36.6842105,6.61184211 38.5262747,4.90127467 40.763199,4.50653783 L41.0263158,4.50653783 L40.763199,4.50653783 Z" id="Shape" fill="#F8F175" fill-rule="nonzero"></path>
                        <path d="M11.9474095,5.55925164 C10.6315789,5.29613487 9.57898849,4.37504112 9.44736842,3.05921053 L9.44736842,2.92759046 L9.44736842,3.05921053 C9.18425164,4.37504112 8.26315789,5.42763158 6.9473273,5.55925164 L6.9473273,5.55925164 C8.26315789,5.82236842 9.31574836,6.74346217 9.44736842,8.05929276 L9.44736842,8.19078947 L9.44736842,8.19078947 C9.57898849,6.87495888 10.6315789,5.82236842 11.9474095,5.55925164 L12.0790296,5.55925164 L11.9474095,5.55925164 Z" id="Shape" fill="#F1F5F9" fill-rule="nonzero"></path>
                        <g id="Shape" transform="translate(7.368421, 32.631579)">
                            <mask id="mask-2" fill="white">
                                <use xlink:href="#path-1"></use>
                            </mask>
                            <use id="Mask" fill="#323D5D" fill-rule="nonzero" xlink:href="#path-1"></use>
                            <path d="M-0.657894737,8.71710526 C5.26315789,10.5591694 9.07890625,12.269778 18.6842105,12.269778 C28.2895148,12.269778 31.7105263,10.5592928 37.4999589,8.84872533 C37.105222,5.82245066 36.7104852,2.9276727 36.7104852,0.296134868 C24.4736431,0.296134868 12.3684211,0.296134868 0.131578947,0.296134868 C0.131578947,2.9276727 -0.263157895,5.8223273 -0.657894737,8.71710526 Z" fill="#845DFD" fill-rule="nonzero" mask="url(#mask-2)"></path>
                        </g>
                        <path d="M51.8421464,26.8750411 L0.263116776,26.8750411 L0,26.8750411 L0,28.1908717 C0,33.1908306 11.7104852,37.4013158 26.0526316,37.4013158 C40.394778,37.4013158 52.1052632,33.3223273 52.1052632,28.1907484 L52.1052632,26.8749178 L51.8421464,26.8749178 L51.8421464,26.8750411 Z" id="Shape" fill="#323D5D" fill-rule="nonzero"></path>
                        <ellipse id="Oval" fill="#A185FA" fill-rule="nonzero" cx="26.0526316" cy="26.8750411" rx="26.0526316" ry="9.21056743"></ellipse>
                        <ellipse id="Oval" fill="#425070" fill-rule="nonzero" cx="26.0526316" cy="26.8750411" rx="15.2631168" ry="4.73684211"></ellipse>
                        <path d="M31.8479907,14.1439611 L34.8742654,11.1176865 L60.5000411,36.7434622 C61.4210115,37.5329359 61.4210115,38.9802632 60.5000411,39.7697368 C59.7105674,40.5592105 58.2632401,40.5592105 57.4737664,39.7697368 L31.8479907,14.1439611 Z M31.0106355,13.3066059 L21.4210938,3.71706414 C20.6316201,2.92759046 20.6316201,1.48026316 21.4210938,0.690789474 C22.2105674,-0.0986842105 23.6578947,-0.0986842105 24.4473684,0.690789474 L34.0369102,10.2803312 L31.0106355,13.3066059 Z" id="Combined-Shape" fill="#323D5D" fill-rule="nonzero"></path>
                        <path d="M34.0526727,10.2960937 L31.0262747,13.3223684 L21.4209704,3.71706414 C20.6314967,2.92759046 20.6314967,1.48026316 21.4209704,0.690789474 L21.4209704,0.690789474 C22.2104441,-0.0986842105 23.6577714,-0.0986842105 24.4472451,0.690789474 L34.0526727,10.2960937 Z" id="Shape" stroke="#F8F175" stroke-width="0.200000018" fill="#F8F175" fill-rule="nonzero"></path>
                    </g>
                </g>
            </g>
        </g>
    </g>
</svg>