<?xml version="1.0" encoding="UTF-8"?>
<svg width="60px" height="60px" viewBox="0 0 60 60" version="1.1" xmlns="http://www.w3.org/2000/svg" xmlns:xlink="http://www.w3.org/1999/xlink">
    <defs></defs>
    <g id="Design" stroke="none" stroke-width="1" fill="none" fill-rule="evenodd">
        <g id="1.0.0-–-Homepage" transform="translate(-154.000000, -2570.000000)" fill-rule="nonzero">
            <g id="Solutions" transform="translate(0.000000, 2339.000000)">
                <g id="#1" transform="translate(154.000000, 231.000000)">
                    <g id="004-medical">
                        <path d="M9.25309942,32.4281871 L3.76748538,37.9138012 C-1.25157895,42.9328655 -1.25157895,51.0996491 3.76748538,56.1187135 C6.27707602,58.6281871 9.57345029,59.8830409 12.8698246,59.8830409 C16.1663158,59.8830409 19.4626901,58.6281871 21.9722807,56.1185965 L27.4578947,50.6329825 L9.25309942,32.4281871 Z" id="Shape" fill="#FD5D5D"></path>
                        <path d="M56.1156725,3.77052632 C53.6843275,1.33906433 50.4516959,0 47.0133333,0 C43.5747368,0 40.3422222,1.33906433 37.9109942,3.77040936 L32.4253801,9.25602339 L50.6301754,27.4610526 L56.1157895,21.9754386 C61.1348538,16.9562573 61.1348538,8.78959064 56.1156725,3.77052632 Z M52.8071345,18.6667836 L50.3185965,21.1553216 L47.837193,18.6739181 L50.325731,16.1853801 C52.1521637,14.3589474 52.1521637,11.3869006 50.325731,9.56046784 L52.8071345,7.07906433 C56.0019883,10.2738012 56.0019883,15.4720468 52.8071345,18.6667836 Z" id="Shape" fill="#FD5D5D"></path>
                        <path d="M21.9722807,3.77040936 C16.9532164,-1.24865497 8.78654971,-1.24877193 3.76736842,3.77040936 C-1.25169591,8.78947368 -1.25169591,16.9562573 3.76736842,21.9753216 L9.25298246,27.4609357 L27.4578947,9.25602339 L21.9722807,3.77040936 Z M18.6709942,12.0490058 L16.1824561,9.56046784 C14.3559064,7.73391813 11.3838596,7.73403509 9.55754386,9.56046784 L7.07614035,7.07906433 C10.2708772,3.88421053 15.4692398,3.88432749 18.6638596,7.07906433 L21.1523977,9.56760234 L18.6709942,12.0490058 Z" id="Shape" fill="#FD5D5D"></path>
                        <path d="M56.1155556,37.9139181 L50.6300585,32.4281871 L32.4252632,50.6330994 L37.9108772,56.1187135 C40.4203509,58.6283041 43.7168421,59.8831579 47.0132164,59.8831579 C50.3095906,59.8831579 53.6060819,58.6283041 56.1155556,56.1187135 C61.1347368,51.0996491 61.1347368,42.9329825 56.1155556,37.9139181 Z" id="Shape" fill="#FD5D5D"></path>
                        <path d="M48.148655,29.9422222 L29.9437427,11.7374269 L29.9416374,11.7395322 L29.9395322,11.7374269 L11.7346199,29.9424561 L11.7367251,29.9445614 L11.7346199,29.9466667 L29.9396491,48.1516959 L29.9417544,48.1495906 L29.9438596,48.1516959 L48.1487719,29.9467836 L48.1465497,29.9445614 L48.148655,29.9422222 Z M21.542924,32.5281871 L18.857076,29.8423392 L21.3384795,27.3609357 L24.0243275,30.0467836 L21.542924,32.5281871 Z M30.0438596,41.0290058 L27.3580117,38.3431579 L29.8394152,35.8617544 L32.5252632,38.5476023 L30.0438596,41.0290058 Z M30.0438596,32.5281871 L27.3580117,29.8423392 L29.8394152,27.3609357 L32.5252632,30.0467836 L30.0438596,32.5281871 Z M30.0438596,24.0272515 L27.3580117,21.3414035 L29.8394152,18.86 L32.5252632,21.545848 L30.0438596,24.0272515 Z M38.5447953,32.5281871 L35.8589474,29.8423392 L38.3403509,27.3609357 L41.0261988,30.0467836 L38.5447953,32.5281871 Z" id="Shape" fill="#FC9B9B"></path>
                    </g>
                </g>
            </g>
        </g>
    </g>
</svg>