<?xml version="1.0" encoding="UTF-8"?>
<svg width="60px" height="60px" viewBox="0 0 60 60" version="1.1" xmlns="http://www.w3.org/2000/svg" xmlns:xlink="http://www.w3.org/1999/xlink">
    <defs></defs>
    <g id="Design" stroke="none" stroke-width="1" fill="none" fill-rule="evenodd">
        <g id="1.0.0-–-Homepage" transform="translate(-544.000000, -2570.000000)" fill-rule="nonzero">
            <g id="Solutions" transform="translate(0.000000, 2339.000000)">
                <g id="#1-copy" transform="translate(544.000000, 231.000000)">
                    <g id="003-rocket">
                        <polygon id="Shape" fill="#5589FF" points="6.63849785 39.761588 20.1881974 53.3112876 25.8815021 49.596824 10.3528326 34.0681545"></polygon>
                        <polygon id="Shape" fill="#87BBFD" points="25.5794421 11.2090558 14.5718884 11.7430043 2.95635193 23.3585408 10.8996567 25.8887124"></polygon>
                        <polygon id="Shape" fill="#87BBFD" points="36.5912446 56.9933047 48.2067811 45.3777682 48.7407296 34.3702146 34.061073 49.05"></polygon>
                        <polygon id="Shape" fill="#87BBFD" points="0.000128755365 46.4307296 4.3776824 42.0530472 7.10896996 44.7843348 2.73141631 49.1618884"></polygon>
                        <polygon id="Shape" fill="#87BBFD" points="13.5182833 59.9497854 10.7869957 57.2184979 15.1645494 52.8408155 17.8958369 55.572103"></polygon>
                        <polygon id="Shape" fill="#87BBFD" points="3.22158798 53.8037768 9.67506438 47.3503004 12.4063519 50.081588 5.95287554 56.5350644"></polygon>
                        <circle id="Oval" fill="#87BBFD" cx="46.9878541" cy="12.9618026" r="1.93133047"></circle>
                        <path d="M58.5794421,1.37034335 C51.0041202,-1.4904721 42.1230901,0.128111588 36.0251073,6.22596567 L11.9992275,30.2518455 L29.6979399,47.9504292 L53.7238197,23.9245494 C59.8216738,17.8266953 61.4401288,8.94566524 58.5794421,1.37034335 Z M51.0848498,17.0587983 C48.822103,19.3214163 45.1536052,19.3214163 42.8908584,17.0587983 C40.6281116,14.7960515 40.6281116,11.1275536 42.8908584,8.86480687 C45.1536052,6.60206009 48.822103,6.60206009 51.0848498,8.86480687 C53.3474678,11.1275536 53.3474678,14.7961803 51.0848498,17.0587983 Z" id="Shape" fill="#5589FF"></path>
                    </g>
                </g>
            </g>
        </g>
    </g>
</svg>